<svg id="svg" version="1.1" xmlns="http://www.w3.org/2000/svg" xmlns:xlink="http://www.w3.org/1999/xlink" width="400" height="400" viewBox="0, 0, 400,400"><g id="svgg"><path id="path0" d="M186.800 17.645 C 167.942 19.158,145.666 24.481,131.039 30.970 C 130.358 31.272,128.810 31.940,127.600 32.454 C 125.041 33.541,114.540 38.755,112.200 40.100 C 107.559 42.768,106.145 43.644,101.000 47.035 C 79.429 61.253,61.685 79.312,47.082 101.912 C 46.047 103.514,45.200 104.906,45.200 105.005 C 45.200 105.104,44.599 106.133,43.865 107.292 C 37.485 117.362,28.802 137.524,25.384 150.200 C 23.428 157.457,22.277 162.316,21.596 166.200 C 19.654 177.278,19.334 179.796,18.805 188.200 C 17.928 202.146,18.666 217.287,20.814 229.400 C 21.048 230.720,21.404 232.790,21.604 234.000 C 21.805 235.210,22.262 237.460,22.621 239.000 C 22.979 240.540,23.419 242.430,23.598 243.200 C 25.143 249.855,28.694 260.986,31.190 267.000 C 31.373 267.440,32.028 269.060,32.646 270.600 C 39.173 286.855,52.880 308.264,65.529 321.958 C 67.438 324.025,69.450 326.253,70.000 326.910 C 71.616 328.839,81.055 337.442,85.006 340.586 C 86.103 341.459,87.090 342.278,87.200 342.408 C 87.310 342.537,88.120 343.172,89.000 343.819 C 89.880 344.466,90.690 345.086,90.800 345.198 C 92.351 346.766,103.223 354.054,108.591 357.124 C 109.916 357.881,111.900 359.025,113.000 359.666 C 117.323 362.183,128.119 367.241,134.200 369.598 C 137.720 370.962,140.960 372.228,141.400 372.410 C 142.251 372.763,147.404 374.366,150.400 375.209 C 151.390 375.488,152.920 375.942,153.800 376.217 L 155.400 376.718 155.523 383.259 C 155.696 392.475,155.424 394.800,154.168 394.800 C 153.232 394.800,152.863 395.344,153.521 395.751 C 153.698 395.861,154.778 396.006,155.921 396.075 C 157.065 396.144,158.000 396.335,158.000 396.500 C 158.000 396.665,158.990 396.800,160.200 396.800 C 161.410 396.800,162.400 396.980,162.400 397.200 C 162.400 397.428,163.596 397.600,165.187 397.600 C 167.362 397.600,167.929 397.719,167.768 398.140 C 167.609 398.553,168.151 398.697,170.075 398.755 C 171.458 398.796,172.763 399.003,172.975 399.215 C 173.802 400.042,176.688 399.668,176.948 398.700 C 177.081 398.205,177.192 335.758,177.195 259.930 L 177.200 122.059 191.600 107.466 L 206.000 92.873 206.000 80.037 C 206.000 70.048,206.111 67.194,206.500 67.174 C 206.775 67.160,208.620 67.163,210.600 67.181 C 212.580 67.198,214.409 67.074,214.665 66.904 C 215.204 66.547,215.584 38.145,215.061 37.299 C 214.624 36.592,185.986 36.574,185.280 37.280 C 184.592 37.968,184.592 66.032,185.280 66.720 C 185.591 67.031,187.209 67.200,189.880 67.200 L 194.000 67.200 193.999 77.500 L 193.997 87.800 182.765 99.200 C 163.333 118.923,165.603 114.950,165.601 129.233 C 165.601 135.522,165.475 140.792,165.321 140.945 C 164.942 141.324,159.234 135.284,158.981 134.236 C 158.870 133.776,158.829 121.340,158.890 106.600 L 159.000 79.800 163.177 79.685 C 168.723 79.533,168.217 81.144,168.090 64.034 L 167.981 49.200 153.000 49.200 L 138.019 49.200 137.910 63.900 C 137.849 71.985,137.952 78.819,138.138 79.087 C 138.359 79.405,139.957 79.613,142.738 79.687 L 147.000 79.800 147.077 100.700 C 147.164 124.342,147.411 122.925,143.835 119.300 C 142.588 118.035,138.026 113.446,133.699 109.102 L 125.831 101.205 125.802 90.302 C 125.786 84.306,125.634 79.175,125.463 78.900 C 125.224 78.515,121.767 78.400,110.384 78.400 L 95.615 78.400 95.360 79.416 C 95.055 80.631,95.484 108.289,95.816 108.827 C 95.950 109.043,100.555 109.200,106.753 109.200 L 117.458 109.200 119.385 111.300 C 120.444 112.455,124.301 116.464,127.956 120.210 C 136.057 128.513,145.300 138.074,150.400 143.426 C 152.490 145.619,155.958 149.234,158.108 151.459 L 162.016 155.504 161.951 186.252 C 161.915 203.163,161.769 218.800,161.626 221.000 L 161.367 225.000 148.685 212.200 L 136.003 199.400 136.001 182.880 L 136.000 166.360 130.774 160.787 C 127.900 157.723,125.380 155.111,125.174 154.984 C 124.966 154.855,124.800 151.774,124.800 148.039 C 124.800 144.347,124.682 139.137,124.539 136.463 L 124.277 131.600 109.381 131.600 C 96.850 131.600,94.451 131.691,94.267 132.171 C 94.146 132.485,94.082 139.280,94.124 147.271 L 94.200 161.800 104.981 161.907 C 117.413 162.030,115.528 161.389,120.856 167.303 L 124.012 170.806 123.906 182.703 L 123.800 194.600 119.308 194.713 L 114.817 194.826 97.508 177.368 L 80.200 159.910 80.000 148.455 L 79.800 137.000 64.800 137.000 L 49.800 137.000 49.695 151.553 C 49.620 161.961,49.719 166.262,50.044 166.653 C 50.407 167.090,52.584 167.200,60.869 167.200 L 71.240 167.200 82.952 179.100 C 96.118 192.478,97.695 194.172,97.326 194.541 C 97.183 194.683,90.803 194.800,83.146 194.800 L 69.226 194.800 69.113 190.300 L 69.000 185.800 54.225 185.695 C 44.987 185.629,39.303 185.737,39.059 185.981 C 38.533 186.507,38.229 202.027,38.593 209.792 L 38.885 216.010 53.942 215.905 L 69.000 215.800 69.114 211.500 C 69.194 208.465,69.370 207.195,69.714 207.182 C 69.981 207.173,81.873 207.148,96.139 207.128 L 122.079 207.090 127.039 212.039 C 129.768 214.761,132.000 217.264,132.000 217.602 C 132.000 217.940,126.189 224.018,119.086 231.108 L 106.172 244.000 93.493 244.000 L 80.815 244.000 80.608 243.100 C 80.493 242.605,80.355 240.580,80.300 238.600 L 80.200 235.000 65.427 234.895 C 53.874 234.813,50.584 234.900,50.333 235.295 C 49.783 236.161,49.923 264.163,50.480 264.720 C 50.988 265.228,78.481 265.451,79.767 264.957 C 80.284 264.759,80.400 264.004,80.400 260.837 C 80.400 255.545,78.902 256.000,96.312 256.000 L 111.263 256.000 125.947 241.200 C 134.022 233.060,140.818 226.400,141.049 226.400 C 141.610 226.400,161.329 246.227,161.635 247.100 C 162.058 248.306,161.534 376.977,161.104 377.251 C 160.645 377.544,160.534 377.521,154.000 375.726 C 148.229 374.141,147.760 373.998,143.200 372.443 C 132.396 368.758,118.544 362.626,112.721 358.950 C 111.893 358.428,111.145 358.000,111.059 358.000 C 110.810 358.000,104.122 353.934,100.400 351.519 C 97.444 349.602,86.958 341.899,86.400 341.235 C 86.290 341.104,84.580 339.660,82.600 338.026 C 43.213 305.516,19.169 253.431,19.067 200.400 C 19.034 183.230,20.249 172.989,24.264 156.600 C 25.680 150.820,27.865 143.377,29.224 139.700 C 31.172 134.430,31.784 132.860,32.661 130.888 C 33.177 129.727,33.600 128.705,33.600 128.617 C 33.600 127.989,39.960 114.941,41.797 111.800 C 42.569 110.480,43.576 108.702,44.034 107.849 C 51.218 94.489,68.677 73.343,81.600 62.352 C 83.250 60.948,84.690 59.693,84.800 59.562 C 84.963 59.368,89.960 55.358,92.400 53.463 C 94.980 51.459,109.307 42.000,109.761 42.000 C 109.856 42.000,111.254 41.223,112.867 40.273 C 122.922 34.354,139.419 27.619,152.400 24.133 C 158.699 22.442,168.428 20.414,174.000 19.632 C 175.870 19.370,178.570 18.984,180.000 18.774 C 202.698 15.440,241.488 20.161,262.200 28.778 C 262.640 28.961,265.160 29.969,267.800 31.017 C 273.673 33.350,284.296 38.437,288.533 40.945 C 290.256 41.965,291.750 42.800,291.852 42.800 C 293.383 42.800,313.996 57.977,320.452 63.858 C 329.291 71.910,345.194 89.674,345.199 91.500 C 345.200 91.874,343.868 92.003,339.900 92.011 C 307.342 92.077,251.804 91.937,251.654 91.788 C 251.549 91.683,251.882 91.152,252.393 90.607 C 253.270 89.674,253.318 89.347,253.241 84.845 C 253.143 79.191,252.964 79.406,257.654 79.554 C 263.329 79.734,262.846 81.117,262.782 64.876 C 262.752 57.244,262.634 50.595,262.520 50.100 L 262.313 49.200 247.384 49.200 C 233.507 49.200,232.440 49.249,232.256 49.900 C 231.769 51.627,232.027 78.724,232.535 79.146 C 232.815 79.379,234.835 79.621,237.022 79.685 L 241.000 79.800 241.118 82.946 L 241.235 86.093 238.911 88.346 C 224.074 102.732,210.286 116.156,200.498 125.746 L 192.796 133.292 192.898 170.946 L 193.000 208.600 222.743 208.703 L 252.487 208.805 255.726 205.703 C 257.507 203.996,260.118 201.430,261.529 200.000 C 279.711 181.562,295.135 166.332,295.787 166.174 C 296.234 166.065,301.820 166.026,308.200 166.088 L 319.800 166.200 320.000 170.600 L 320.200 175.000 335.091 175.105 L 349.982 175.210 350.203 174.305 C 350.324 173.807,350.373 167.010,350.312 159.200 L 350.200 145.000 335.200 145.000 L 320.200 145.000 320.000 149.400 L 319.800 153.800 304.992 153.905 L 290.185 154.010 270.448 173.808 L 250.712 193.607 229.456 193.503 L 208.200 193.400 208.097 167.392 L 207.994 141.383 217.097 132.624 C 222.104 127.807,228.724 121.421,231.808 118.433 C 234.892 115.445,238.788 111.695,240.465 110.100 L 243.515 107.200 310.557 107.200 L 377.600 107.200 377.600 106.200 C 377.600 105.650,377.420 105.200,377.200 105.200 C 376.980 105.200,376.800 104.832,376.800 104.383 C 376.800 103.933,376.350 103.080,375.800 102.487 C 375.250 101.893,374.800 101.181,374.800 100.904 C 374.800 100.627,374.620 100.400,374.400 100.400 C 374.180 100.400,374.000 100.040,374.000 99.600 C 374.000 99.160,373.820 98.800,373.600 98.800 C 373.380 98.800,373.194 98.485,373.187 98.100 C 373.172 97.235,372.271 96.000,371.656 96.000 C 371.405 96.000,371.200 95.550,371.200 95.000 C 371.200 94.450,371.020 94.000,370.800 94.000 C 370.580 94.000,370.400 93.730,370.400 93.400 C 370.400 92.438,368.998 91.258,368.311 91.642 C 367.983 91.825,362.965 91.992,357.158 92.013 L 346.602 92.051 345.601 90.895 C 345.050 90.260,342.800 87.426,340.600 84.598 C 329.290 70.060,306.787 50.612,291.200 41.904 C 290.210 41.351,288.320 40.282,287.000 39.528 C 269.923 29.778,244.798 21.505,224.000 18.784 C 214.289 17.514,195.574 16.941,186.800 17.645 M205.780 46.368 C 206.275 47.168,206.439 56.871,205.968 57.439 C 205.241 58.314,194.581 58.250,194.243 57.367 C 193.912 56.505,193.933 46.600,194.267 46.267 C 194.678 45.856,205.523 45.951,205.780 46.368 M158.800 59.056 C 158.800 59.417,158.883 61.850,158.985 64.463 C 159.236 70.916,159.757 70.400,153.000 70.400 C 146.205 70.400,146.753 71.011,147.079 63.812 L 147.323 58.400 153.062 58.400 C 158.115 58.400,158.800 58.478,158.800 59.056 M253.341 59.100 C 253.716 60.451,253.530 69.401,253.117 69.900 C 252.467 70.683,241.763 70.602,241.460 69.812 C 241.336 69.488,241.344 66.788,241.479 63.812 L 241.723 58.400 247.435 58.400 C 252.533 58.400,253.167 58.475,253.341 59.100 M116.405 93.200 C 116.674 100.301,117.182 99.743,110.555 99.634 C 103.958 99.525,104.414 99.963,104.406 93.733 C 104.398 87.017,103.848 87.558,110.547 87.689 L 116.200 87.800 116.405 93.200 M383.581 120.820 C 383.234 121.039,357.088 121.196,318.800 121.207 L 254.600 121.227 247.600 128.053 C 243.750 131.807,236.775 138.582,232.100 143.107 L 223.600 151.335 223.600 164.649 L 223.600 177.964 224.900 178.183 C 225.615 178.303,229.080 178.267,232.600 178.101 L 239.000 177.800 239.107 167.747 L 239.214 157.694 250.088 147.045 L 260.963 136.397 315.362 136.499 L 369.761 136.600 370.655 139.000 C 372.268 143.331,375.114 152.912,376.181 157.600 C 378.631 168.370,378.696 168.740,380.460 182.000 C 381.151 187.197,381.161 212.760,380.473 218.400 C 378.236 236.756,373.201 256.567,367.617 268.983 C 367.217 269.872,366.473 271.590,365.963 272.800 C 361.544 283.289,347.620 306.860,343.989 310.000 C 343.862 310.110,343.228 310.920,342.581 311.800 C 341.934 312.680,341.307 313.490,341.189 313.600 C 341.070 313.710,340.259 314.700,339.387 315.800 C 334.538 321.917,322.000 334.389,314.600 340.456 C 299.652 352.713,282.035 363.031,264.856 369.591 C 255.168 373.291,245.759 376.196,239.000 377.575 C 237.680 377.845,235.880 378.226,235.000 378.422 C 232.509 378.979,226.959 379.877,223.000 380.365 C 221.020 380.609,217.992 380.987,216.271 381.204 C 214.550 381.422,211.985 381.600,210.570 381.600 L 207.998 381.600 208.099 310.700 L 208.200 239.800 243.085 239.698 L 277.971 239.596 286.028 247.698 L 294.085 255.800 306.742 256.000 L 319.400 256.200 319.515 260.178 C 319.583 262.494,319.829 264.395,320.107 264.728 C 320.619 265.346,348.525 265.264,349.532 264.642 C 350.078 264.304,350.208 236.147,349.667 235.295 C 349.416 234.900,346.126 234.813,334.573 234.895 L 319.800 235.000 319.600 239.400 L 319.400 243.800 309.411 243.907 L 299.422 244.014 291.711 236.311 C 287.470 232.074,284.000 228.425,284.000 228.201 C 284.000 227.977,288.642 223.155,294.316 217.484 L 304.631 207.175 317.216 207.173 C 324.137 207.172,330.025 207.178,330.300 207.186 C 330.664 207.196,330.800 208.228,330.800 210.967 C 330.800 213.039,330.909 215.019,331.043 215.367 C 331.412 216.330,360.988 216.330,361.357 215.367 C 361.791 214.236,361.632 187.206,361.186 186.374 C 360.788 185.630,360.195 185.600,346.033 185.600 L 331.293 185.600 331.052 186.500 C 330.919 186.995,330.808 189.065,330.805 191.100 L 330.800 194.800 315.332 194.800 L 299.864 194.800 285.229 209.598 L 270.593 224.396 231.797 224.498 L 193.000 224.600 192.899 312.300 L 192.798 400.000 200.199 400.000 L 207.600 400.000 207.663 392.500 C 207.737 383.539,207.777 382.857,208.241 382.423 C 208.438 382.238,210.580 381.991,213.000 381.874 C 217.313 381.664,228.029 380.353,231.330 379.631 C 232.248 379.430,234.080 379.056,235.400 378.799 C 240.131 377.878,246.639 376.325,248.800 375.602 C 250.010 375.196,252.710 374.324,254.800 373.664 C 258.681 372.438,264.683 370.316,266.300 369.599 C 266.795 369.380,267.605 369.041,268.100 368.847 C 272.254 367.220,282.564 362.287,286.600 359.995 C 287.480 359.496,289.010 358.637,290.000 358.086 C 290.990 357.536,292.278 356.751,292.862 356.343 C 293.446 355.934,294.121 355.600,294.362 355.600 C 294.603 355.600,294.800 355.420,294.800 355.200 C 294.800 354.980,294.982 354.800,295.204 354.800 C 296.192 354.800,314.238 341.866,316.400 339.609 C 316.510 339.494,318.130 338.057,320.000 336.415 C 326.549 330.667,336.062 320.778,340.601 315.000 C 341.466 313.900,342.278 312.910,342.408 312.800 C 342.537 312.690,343.172 311.880,343.819 311.000 C 344.466 310.120,345.101 309.310,345.230 309.200 C 345.596 308.888,351.641 300.093,353.478 297.200 C 362.421 283.118,371.245 263.423,374.985 249.200 C 376.403 243.804,376.907 241.805,377.454 239.400 C 381.881 219.951,383.022 195.786,380.381 177.400 C 379.175 169.003,378.213 163.985,376.315 156.200 C 374.722 149.664,373.226 144.453,372.410 142.600 C 372.216 142.160,371.675 140.601,371.208 139.135 C 370.740 137.669,370.083 136.364,369.746 136.235 C 369.410 136.106,344.727 136.000,314.896 136.000 L 260.658 136.000 254.461 142.100 C 244.013 152.385,241.051 155.358,239.722 156.897 L 238.445 158.377 238.683 167.489 C 238.883 175.165,238.829 176.678,238.341 177.083 C 237.871 177.473,229.468 177.798,224.500 177.618 C 224.111 177.604,224.000 174.735,224.000 164.658 L 224.000 151.716 237.248 138.758 C 244.534 131.631,251.441 124.855,252.596 123.700 L 254.696 121.600 319.748 121.600 C 360.129 121.600,384.800 121.457,384.800 121.224 C 384.800 120.619,384.209 120.423,383.581 120.820 M115.400 146.800 L 115.400 152.600 109.600 152.600 L 103.800 152.600 103.689 146.689 L 103.578 140.778 109.489 140.889 L 115.400 141.000 115.400 146.800 M70.311 146.193 C 70.700 146.338,70.796 147.744,70.711 152.092 L 70.600 157.800 65.031 157.912 C 60.844 157.996,59.381 157.896,59.137 157.512 C 58.681 156.792,58.718 146.642,59.179 146.180 C 59.551 145.807,69.302 145.818,70.311 146.193 M340.957 154.633 C 341.319 155.577,341.239 164.920,340.863 165.512 C 340.619 165.896,339.156 165.996,334.969 165.912 L 329.400 165.800 329.289 159.900 L 329.179 154.000 334.947 154.000 C 339.837 154.000,340.751 154.096,340.957 154.633 M59.757 195.433 C 60.390 197.081,60.014 206.365,59.300 206.728 C 58.602 207.082,48.472 207.005,48.109 206.643 C 47.854 206.388,47.979 195.558,48.242 195.133 C 48.662 194.453,59.489 194.735,59.757 195.433 M351.772 195.154 C 352.129 195.733,352.427 205.762,352.100 206.240 C 351.700 206.828,341.713 207.289,340.734 206.765 C 339.985 206.364,339.562 195.771,340.267 195.067 C 340.669 194.664,351.520 194.747,351.772 195.154 M70.942 244.199 C 71.697 244.954,71.877 254.584,71.153 255.457 C 70.534 256.202,60.277 256.241,59.727 255.500 C 59.451 255.128,59.334 246.690,59.571 244.312 C 59.587 244.153,61.985 243.967,64.900 243.899 C 67.815 243.831,70.232 243.735,70.271 243.687 C 70.311 243.639,70.613 243.870,70.942 244.199 M340.499 244.534 C 340.954 245.228,340.788 254.920,340.312 255.500 C 340.021 255.854,338.351 256.000,334.575 256.000 C 330.752 256.000,329.156 255.859,328.924 255.500 C 328.388 254.671,328.439 244.818,328.982 244.274 C 329.623 243.632,340.063 243.867,340.499 244.534 M224.400 255.133 C 224.136 255.221,224.000 273.322,224.000 308.433 L 224.000 361.600 225.037 361.600 C 227.398 361.600,238.136 359.117,239.048 358.361 C 239.820 357.719,239.881 255.821,239.109 255.344 C 238.636 255.052,225.221 254.860,224.400 255.133 M239.000 307.000 L 239.000 358.200 235.400 359.043 C 229.647 360.390,227.495 360.818,226.000 360.912 L 224.600 361.000 224.499 308.291 L 224.397 255.582 231.699 255.691 L 239.000 255.800 239.000 307.000 M35.200 315.138 C 35.200 315.324,35.560 315.802,36.000 316.200 C 36.454 316.611,36.800 316.724,36.800 316.462 C 36.800 316.208,36.620 316.000,36.400 316.000 C 36.180 316.000,36.000 315.730,36.000 315.400 C 36.000 315.070,35.820 314.800,35.600 314.800 C 35.380 314.800,35.200 314.952,35.200 315.138 M38.000 319.000 C 38.000 319.330,38.180 319.600,38.400 319.600 C 38.620 319.600,38.800 319.330,38.800 319.000 C 38.800 318.670,38.620 318.400,38.400 318.400 C 38.180 318.400,38.000 318.670,38.000 319.000 M40.400 322.551 C 40.400 322.634,40.670 322.926,41.000 323.200 C 41.491 323.608,41.600 323.580,41.600 323.049 C 41.600 322.692,41.330 322.400,41.000 322.400 C 40.670 322.400,40.400 322.468,40.400 322.551 M43.693 326.800 C 43.968 327.240,44.410 327.600,44.676 327.600 C 44.942 327.600,45.344 327.915,45.568 328.300 C 45.825 328.741,45.980 328.804,45.988 328.471 C 46.002 327.840,45.032 326.800,44.429 326.800 C 44.193 326.800,44.000 326.620,44.000 326.400 C 44.000 326.180,43.818 326.000,43.597 326.000 C 43.357 326.000,43.397 326.326,43.693 326.800 M48.000 331.600 C 48.000 331.820,48.180 332.000,48.400 332.000 C 48.620 332.000,48.800 332.204,48.800 332.453 C 48.800 332.985,50.342 334.400,50.922 334.400 C 51.142 334.400,50.935 334.064,50.461 333.653 C 49.988 333.242,49.600 332.779,49.600 332.625 C 49.600 332.287,48.553 331.200,48.229 331.200 C 48.103 331.200,48.000 331.380,48.000 331.600 M65.646 348.839 C 65.593 349.568,66.884 351.200,67.514 351.200 C 67.744 351.200,68.014 351.425,68.112 351.700 C 68.210 351.975,68.434 352.066,68.610 351.902 C 68.911 351.621,66.910 349.602,66.329 349.600 C 66.180 349.600,65.976 349.285,65.876 348.900 C 65.727 348.330,65.684 348.318,65.646 348.839 M72.400 355.138 C 72.400 355.324,72.760 355.802,73.200 356.200 C 73.654 356.611,74.000 356.724,74.000 356.462 C 74.000 356.208,73.820 356.000,73.600 356.000 C 73.380 356.000,73.200 355.730,73.200 355.400 C 73.200 355.070,73.020 354.800,72.800 354.800 C 72.580 354.800,72.400 354.952,72.400 355.138 M326.800 355.400 C 326.800 355.730,326.620 356.000,326.400 356.000 C 326.180 356.000,326.000 356.208,326.000 356.462 C 326.000 356.724,326.346 356.611,326.800 356.200 C 327.664 355.418,327.841 354.800,327.200 354.800 C 326.980 354.800,326.800 355.070,326.800 355.400 M76.796 358.996 C 77.068 359.323,77.453 359.491,77.652 359.368 C 78.162 359.052,77.674 358.400,76.927 358.400 C 76.419 358.400,76.394 358.511,76.796 358.996 M322.400 359.049 C 322.400 359.580,322.509 359.608,323.000 359.200 C 323.330 358.926,323.600 358.634,323.600 358.551 C 323.600 358.468,323.330 358.400,323.000 358.400 C 322.670 358.400,322.400 358.692,322.400 359.049 M80.492 361.675 C 80.739 362.417,81.600 362.540,81.600 361.833 C 81.600 361.485,81.315 361.200,80.967 361.200 C 80.618 361.200,80.405 361.414,80.492 361.675 M83.800 364.000 C 84.582 364.864,85.200 365.041,85.200 364.400 C 85.200 364.180,84.930 364.000,84.600 364.000 C 84.270 364.000,84.000 363.820,84.000 363.600 C 84.000 363.380,83.792 363.200,83.538 363.200 C 83.276 363.200,83.389 363.546,83.800 364.000 M86.800 366.400 C 86.800 366.620,87.070 366.800,87.400 366.800 C 87.730 366.800,88.000 366.620,88.000 366.400 C 88.000 366.180,87.730 366.000,87.400 366.000 C 87.070 366.000,86.800 366.180,86.800 366.400 M103.200 376.400 C 103.200 376.620,103.470 376.800,103.800 376.800 C 104.130 376.800,104.400 376.620,104.400 376.400 C 104.400 376.180,104.130 376.000,103.800 376.000 C 103.470 376.000,103.200 376.180,103.200 376.400 M106.800 377.751 C 106.800 377.834,107.070 378.126,107.400 378.400 C 107.891 378.808,108.000 378.780,108.000 378.249 C 108.000 377.892,107.730 377.600,107.400 377.600 C 107.070 377.600,106.800 377.668,106.800 377.751 M108.800 379.000 C 108.800 379.330,108.980 379.600,109.200 379.600 C 109.420 379.600,109.600 379.330,109.600 379.000 C 109.600 378.670,109.420 378.400,109.200 378.400 C 108.980 378.400,108.800 378.670,108.800 379.000 M110.400 380.000 C 110.400 380.220,110.670 380.400,111.000 380.400 C 111.330 380.400,111.600 380.220,111.600 380.000 C 111.600 379.780,111.330 379.600,111.000 379.600 C 110.670 379.600,110.400 379.780,110.400 380.000 M288.400 380.000 C 288.400 380.220,288.670 380.400,289.000 380.400 C 289.330 380.400,289.600 380.220,289.600 380.000 C 289.600 379.780,289.330 379.600,289.000 379.600 C 288.670 379.600,288.400 379.780,288.400 380.000 M114.278 381.456 C 113.958 381.775,114.319 382.400,114.824 382.400 C 115.031 382.400,115.200 382.130,115.200 381.800 C 115.200 381.181,114.728 381.005,114.278 381.456 M284.800 381.800 C 284.800 382.167,284.993 382.402,285.230 382.323 C 285.466 382.245,285.660 382.009,285.660 381.800 C 285.660 381.591,285.466 381.356,285.230 381.277 C 284.993 381.198,284.800 381.433,284.800 381.800 M122.400 385.367 C 122.400 385.715,122.685 386.000,123.033 386.000 C 123.382 386.000,123.595 385.786,123.508 385.525 C 123.261 384.783,122.400 384.660,122.400 385.367 M276.655 385.400 C 276.515 385.765,276.655 386.000,277.013 386.000 C 277.336 386.000,277.600 385.730,277.600 385.400 C 277.600 385.070,277.439 384.800,277.243 384.800 C 277.046 384.800,276.782 385.070,276.655 385.400 M126.800 387.200 C 126.800 387.420,127.070 387.600,127.400 387.600 C 127.730 387.600,128.000 387.420,128.000 387.200 C 128.000 386.980,127.730 386.800,127.400 386.800 C 127.070 386.800,126.800 386.980,126.800 387.200 M272.000 387.200 C 272.000 387.420,272.270 387.600,272.600 387.600 C 272.930 387.600,273.200 387.420,273.200 387.200 C 273.200 386.980,272.930 386.800,272.600 386.800 C 272.270 386.800,272.000 386.980,272.000 387.200 M134.200 390.000 C 134.336 390.220,134.707 390.400,135.024 390.400 C 135.341 390.400,135.600 390.220,135.600 390.000 C 135.600 389.780,135.229 389.600,134.776 389.600 C 134.323 389.600,134.064 389.780,134.200 390.000 M264.600 390.000 C 264.464 390.220,264.623 390.400,264.953 390.400 C 265.283 390.400,265.664 390.220,265.800 390.000 C 265.936 389.780,265.777 389.600,265.447 389.600 C 265.117 389.600,264.736 389.780,264.600 390.000 M136.800 390.800 C 136.800 391.020,137.160 391.200,137.600 391.200 C 138.040 391.200,138.400 391.020,138.400 390.800 C 138.400 390.580,138.040 390.400,137.600 390.400 C 137.160 390.400,136.800 390.580,136.800 390.800 M262.000 390.800 C 262.000 391.020,262.270 391.200,262.600 391.200 C 262.930 391.200,263.200 391.020,263.200 390.800 C 263.200 390.580,262.930 390.400,262.600 390.400 C 262.270 390.400,262.000 390.580,262.000 390.800 M139.600 391.557 C 139.600 392.007,140.640 392.426,140.961 392.106 C 141.442 391.624,141.180 391.200,140.400 391.200 C 139.960 391.200,139.600 391.361,139.600 391.557 M259.333 391.762 C 259.333 392.071,259.573 392.232,259.867 392.119 C 260.160 392.007,260.400 391.754,260.400 391.557 C 260.400 391.361,260.160 391.200,259.867 391.200 C 259.573 391.200,259.333 391.453,259.333 391.762 M143.200 392.800 C 143.200 393.020,143.470 393.200,143.800 393.200 C 144.130 393.200,144.400 393.020,144.400 392.800 C 144.400 392.580,144.130 392.400,143.800 392.400 C 143.470 392.400,143.200 392.580,143.200 392.800 M146.000 393.600 C 146.000 393.820,146.259 394.000,146.576 394.000 C 146.893 394.000,147.264 393.820,147.400 393.600 C 147.536 393.380,147.277 393.200,146.824 393.200 C 146.371 393.200,146.000 393.380,146.000 393.600 M149.600 394.400 C 149.600 394.620,149.859 394.800,150.176 394.800 C 150.493 394.800,150.864 394.620,151.000 394.400 C 151.136 394.180,150.877 394.000,150.424 394.000 C 149.971 394.000,149.600 394.180,149.600 394.400 M245.677 395.230 C 245.755 395.466,245.991 395.660,246.200 395.660 C 246.409 395.660,246.645 395.466,246.723 395.230 C 246.802 394.994,246.567 394.800,246.200 394.800 C 245.833 394.800,245.598 394.994,245.677 395.230 M241.200 396.315 C 241.200 396.488,241.560 396.657,242.000 396.690 C 242.440 396.723,242.800 396.581,242.800 396.375 C 242.800 396.169,242.440 396.000,242.000 396.000 C 241.560 396.000,241.200 396.142,241.200 396.315 M236.800 397.200 C 236.800 397.420,237.160 397.600,237.600 397.600 C 238.040 397.600,238.400 397.420,238.400 397.200 C 238.400 396.980,238.040 396.800,237.600 396.800 C 237.160 396.800,236.800 396.980,236.800 397.200 M230.800 397.976 C 230.800 398.568,231.385 398.781,232.331 398.534 C 233.604 398.201,233.391 397.600,232.000 397.600 C 231.340 397.600,230.800 397.769,230.800 397.976 M224.287 398.918 C 224.155 399.260,224.489 399.467,225.269 399.527 C 226.732 399.638,227.500 399.236,226.743 398.756 C 225.926 398.238,224.512 398.332,224.287 398.918 M216.307 399.890 C 217.026 399.979,218.106 399.977,218.707 399.886 C 219.308 399.795,218.720 399.722,217.400 399.724 C 216.080 399.726,215.588 399.801,216.307 399.890 " stroke="none" fill="#0dc67f" fill-rule="evenodd"></path><path id="path1" d="M176.804 0.276 C 174.716 0.362,172.835 0.605,172.624 0.816 C 172.413 1.027,171.100 1.200,169.707 1.200 C 167.825 1.200,167.116 1.354,166.945 1.800 C 166.777 2.236,166.092 2.400,164.437 2.400 C 163.185 2.400,161.989 2.563,161.780 2.763 C 161.571 2.963,160.455 3.233,159.300 3.363 C 153.559 4.011,153.200 4.086,153.200 4.639 C 153.200 5.037,152.678 5.200,151.400 5.200 C 150.410 5.200,149.600 5.380,149.600 5.600 C 149.600 5.820,148.790 6.000,147.800 6.000 C 146.810 6.000,146.000 6.180,146.000 6.400 C 146.000 6.620,145.370 6.800,144.600 6.800 C 143.830 6.800,143.200 6.980,143.200 7.200 C 143.200 7.420,142.474 7.600,141.587 7.600 C 140.523 7.600,139.897 7.804,139.745 8.200 C 139.603 8.570,138.995 8.800,138.157 8.800 C 137.411 8.800,136.800 8.980,136.800 9.200 C 136.800 9.420,136.170 9.600,135.400 9.600 C 134.630 9.600,134.000 9.780,134.000 10.000 C 134.000 10.220,133.460 10.400,132.800 10.400 C 132.140 10.400,131.600 10.580,131.600 10.800 C 131.600 11.020,131.150 11.200,130.600 11.200 C 129.978 11.200,129.600 11.427,129.600 11.800 C 129.600 12.219,129.178 12.400,128.200 12.400 C 127.430 12.400,126.800 12.580,126.800 12.800 C 126.800 13.020,126.440 13.200,126.000 13.200 C 125.560 13.200,125.200 13.380,125.200 13.600 C 125.200 13.820,124.570 14.000,123.800 14.000 C 122.822 14.000,122.400 14.181,122.400 14.600 C 122.400 14.973,122.022 15.200,121.400 15.200 C 120.850 15.200,120.400 15.380,120.400 15.600 C 120.400 15.820,119.860 16.000,119.200 16.000 C 118.540 16.000,118.000 16.180,118.000 16.400 C 118.000 16.620,117.550 16.800,117.000 16.800 C 116.450 16.800,116.000 16.980,116.000 17.200 C 116.000 17.420,115.634 17.600,115.187 17.600 C 114.741 17.600,114.271 17.870,114.145 18.200 C 114.018 18.530,113.574 18.800,113.157 18.800 C 112.741 18.800,112.400 18.980,112.400 19.200 C 112.400 19.420,111.950 19.600,111.400 19.600 C 110.850 19.600,110.400 19.780,110.400 20.000 C 110.400 20.220,110.117 20.400,109.771 20.400 C 109.426 20.400,108.871 20.672,108.539 21.004 C 108.207 21.336,107.769 21.504,107.565 21.378 C 107.361 21.252,107.086 21.431,106.954 21.775 C 106.822 22.119,106.374 22.400,105.957 22.400 C 105.541 22.400,105.200 22.580,105.200 22.800 C 105.200 23.020,104.945 23.200,104.632 23.200 C 103.919 23.200,101.606 24.498,101.603 24.900 C 101.601 25.065,101.330 25.200,101.000 25.200 C 100.670 25.200,100.400 25.380,100.400 25.600 C 100.400 25.820,100.040 26.000,99.600 26.000 C 99.160 26.000,98.800 26.180,98.800 26.400 C 98.800 26.620,98.427 26.800,97.971 26.800 C 97.086 26.800,96.000 27.666,96.000 28.371 C 96.000 28.607,95.550 28.800,95.000 28.800 C 94.450 28.800,94.000 28.980,94.000 29.200 C 94.000 29.420,93.640 29.600,93.200 29.600 C 92.760 29.600,92.400 29.780,92.400 30.000 C 92.400 30.220,92.130 30.400,91.800 30.400 C 91.470 30.400,91.200 30.580,91.200 30.800 C 91.200 31.020,90.955 31.200,90.656 31.200 C 90.357 31.200,89.774 31.650,89.361 32.200 C 88.948 32.750,88.280 33.200,87.876 33.200 C 87.071 33.200,86.000 34.097,86.000 34.771 C 86.000 35.007,85.622 35.200,85.160 35.200 C 84.699 35.200,83.817 35.740,83.200 36.400 C 82.583 37.060,81.701 37.600,81.240 37.600 C 80.778 37.600,80.400 37.788,80.400 38.018 C 80.400 38.673,78.508 40.400,77.790 40.400 C 77.151 40.400,76.000 41.301,76.000 41.800 C 76.000 42.303,74.847 43.200,74.200 43.200 C 73.458 43.200,72.400 44.124,72.400 44.771 C 72.400 45.007,72.202 45.200,71.960 45.200 C 71.719 45.200,71.017 45.740,70.400 46.400 C 69.783 47.060,69.101 47.600,68.884 47.600 C 68.667 47.600,67.020 49.040,65.224 50.800 C 63.429 52.560,61.788 54.000,61.580 54.000 C 61.371 54.000,61.200 54.186,61.200 54.413 C 61.200 54.951,58.551 57.600,58.013 57.600 C 57.786 57.600,57.600 57.786,57.600 58.013 C 57.600 58.551,54.951 61.200,54.413 61.200 C 54.186 61.200,54.000 61.371,54.000 61.580 C 54.000 61.788,52.560 63.429,50.800 65.224 C 49.040 67.020,47.600 68.667,47.600 68.884 C 47.600 69.101,47.060 69.783,46.400 70.400 C 45.740 71.017,45.200 71.719,45.200 71.960 C 45.200 72.202,45.007 72.400,44.771 72.400 C 44.124 72.400,43.200 73.458,43.200 74.200 C 43.200 74.847,42.303 76.000,41.800 76.000 C 41.301 76.000,40.400 77.151,40.400 77.790 C 40.400 78.508,38.673 80.400,38.018 80.400 C 37.788 80.400,37.600 80.778,37.600 81.240 C 37.600 81.701,37.060 82.583,36.400 83.200 C 35.740 83.817,35.200 84.699,35.200 85.160 C 35.200 85.622,35.007 86.000,34.771 86.000 C 34.097 86.000,33.200 87.071,33.200 87.876 C 33.200 88.280,32.750 88.948,32.200 89.361 C 31.650 89.774,31.200 90.357,31.200 90.656 C 31.200 90.955,31.020 91.200,30.800 91.200 C 30.580 91.200,30.400 91.470,30.400 91.800 C 30.400 92.130,30.220 92.400,30.000 92.400 C 29.780 92.400,29.600 92.760,29.600 93.200 C 29.600 93.640,29.420 94.000,29.200 94.000 C 28.980 94.000,28.800 94.450,28.800 95.000 C 28.800 95.550,28.607 96.000,28.371 96.000 C 27.666 96.000,26.800 97.086,26.800 97.971 C 26.800 98.427,26.620 98.800,26.400 98.800 C 26.180 98.800,26.000 99.160,26.000 99.600 C 26.000 100.040,25.820 100.400,25.600 100.400 C 25.380 100.400,25.200 100.588,25.200 100.817 C 25.200 101.209,24.887 101.662,23.700 102.985 C 23.425 103.292,23.200 103.916,23.200 104.371 C 23.200 104.827,23.020 105.200,22.800 105.200 C 22.580 105.200,22.400 105.541,22.400 105.957 C 22.400 106.374,22.119 106.822,21.775 106.954 C 21.431 107.086,21.252 107.361,21.378 107.565 C 21.504 107.769,21.336 108.207,21.004 108.539 C 20.672 108.871,20.400 109.426,20.400 109.771 C 20.400 110.117,20.220 110.400,20.000 110.400 C 19.780 110.400,19.600 110.850,19.600 111.400 C 19.600 111.950,19.420 112.400,19.200 112.400 C 18.980 112.400,18.800 112.741,18.800 113.157 C 18.800 113.574,18.530 114.018,18.200 114.145 C 17.870 114.271,17.600 114.741,17.600 115.187 C 17.600 115.634,17.420 116.000,17.200 116.000 C 16.980 116.000,16.800 116.450,16.800 117.000 C 16.800 117.550,16.620 118.000,16.400 118.000 C 16.180 118.000,16.000 118.540,16.000 119.200 C 16.000 119.860,15.820 120.400,15.600 120.400 C 15.380 120.400,15.200 120.850,15.200 121.400 C 15.200 122.022,14.973 122.400,14.600 122.400 C 14.181 122.400,14.000 122.822,14.000 123.800 C 14.000 124.570,13.820 125.200,13.600 125.200 C 13.380 125.200,13.200 125.560,13.200 126.000 C 13.200 126.440,13.020 126.800,12.800 126.800 C 12.580 126.800,12.400 127.430,12.400 128.200 C 12.400 129.178,12.219 129.600,11.800 129.600 C 11.427 129.600,11.200 129.978,11.200 130.600 C 11.200 131.150,11.020 131.600,10.800 131.600 C 10.580 131.600,10.400 132.140,10.400 132.800 C 10.400 133.460,10.220 134.000,10.000 134.000 C 9.780 134.000,9.600 134.630,9.600 135.400 C 9.600 136.170,9.420 136.800,9.200 136.800 C 8.980 136.800,8.800 137.411,8.800 138.157 C 8.800 138.995,8.570 139.603,8.200 139.745 C 7.804 139.897,7.600 140.523,7.600 141.587 C 7.600 142.474,7.420 143.200,7.200 143.200 C 6.980 143.200,6.800 143.830,6.800 144.600 C 6.800 145.370,6.620 146.000,6.400 146.000 C 6.180 146.000,6.000 146.810,6.000 147.800 C 6.000 148.790,5.820 149.600,5.600 149.600 C 5.380 149.600,5.200 150.410,5.200 151.400 C 5.200 152.678,5.037 153.200,4.639 153.200 C 4.083 153.200,3.981 153.683,3.370 159.200 C 3.236 160.410,2.963 161.571,2.763 161.780 C 2.563 161.989,2.400 163.185,2.400 164.437 C 2.400 166.092,2.236 166.777,1.800 166.945 C 1.354 167.116,1.200 167.825,1.200 169.707 C 1.200 171.200,0.995 172.445,0.700 172.740 C -0.030 173.470,-0.030 226.530,0.700 227.260 C 0.992 227.552,1.200 228.789,1.200 230.237 C 1.200 232.070,1.356 232.774,1.800 232.945 C 2.238 233.113,2.400 233.803,2.400 235.507 C 2.400 236.790,2.563 238.011,2.763 238.220 C 2.963 238.429,3.236 239.590,3.370 240.800 C 3.981 246.317,4.083 246.800,4.639 246.800 C 5.037 246.800,5.200 247.322,5.200 248.600 C 5.200 249.590,5.380 250.400,5.600 250.400 C 5.820 250.400,6.000 251.210,6.000 252.200 C 6.000 253.190,6.180 254.000,6.400 254.000 C 6.620 254.000,6.800 254.630,6.800 255.400 C 6.800 256.170,6.980 256.800,7.200 256.800 C 7.420 256.800,7.600 257.408,7.600 258.151 C 7.600 258.894,7.870 259.726,8.200 260.000 C 8.530 260.274,8.800 261.005,8.800 261.625 C 8.800 262.245,8.980 262.864,9.200 263.000 C 9.420 263.136,9.600 263.877,9.600 264.647 C 9.600 265.479,9.762 265.947,10.000 265.800 C 10.233 265.656,10.400 266.055,10.400 266.753 C 10.400 267.413,10.580 268.064,10.800 268.200 C 11.020 268.336,11.200 268.887,11.200 269.424 C 11.200 270.025,11.431 270.400,11.800 270.400 C 12.197 270.400,12.400 270.797,12.400 271.576 C 12.400 272.223,12.580 272.864,12.800 273.000 C 13.020 273.136,13.200 273.597,13.200 274.024 C 13.200 274.451,13.380 274.800,13.600 274.800 C 13.820 274.800,14.000 275.346,14.000 276.013 C 14.000 276.721,14.249 277.321,14.600 277.455 C 14.930 277.582,15.200 278.116,15.200 278.643 C 15.200 279.169,15.380 279.600,15.600 279.600 C 15.820 279.600,16.000 279.960,16.000 280.400 C 16.000 280.840,16.180 281.200,16.400 281.200 C 16.620 281.200,16.779 281.335,16.753 281.500 C 16.596 282.491,16.860 283.610,17.200 283.400 C 17.535 283.193,17.710 283.993,17.564 285.064 C 17.544 285.209,17.814 285.488,18.164 285.684 C 18.514 285.880,18.800 286.391,18.800 286.820 C 18.800 287.249,18.951 287.600,19.136 287.600 C 19.321 287.600,19.720 288.365,20.024 289.300 C 20.327 290.235,20.808 291.240,21.092 291.532 C 21.375 291.825,21.504 292.231,21.378 292.435 C 21.252 292.639,21.431 292.914,21.775 293.046 C 22.119 293.178,22.400 293.626,22.400 294.043 C 22.400 294.459,22.546 294.800,22.725 294.800 C 22.904 294.800,23.298 295.430,23.600 296.200 C 23.902 296.970,24.386 297.600,24.675 297.600 C 24.968 297.600,25.200 298.041,25.200 298.600 C 25.200 299.150,25.380 299.600,25.600 299.600 C 25.820 299.600,26.000 299.960,26.000 300.400 C 26.000 300.840,26.180 301.200,26.400 301.200 C 26.620 301.200,26.800 301.470,26.800 301.800 C 26.800 302.130,26.980 302.400,27.200 302.400 C 27.420 302.400,27.600 302.760,27.600 303.200 C 27.600 303.644,27.867 304.000,28.200 304.000 C 28.714 304.000,28.887 304.434,28.774 305.430 C 28.759 305.557,29.119 305.983,29.574 306.377 C 30.028 306.771,30.400 307.277,30.400 307.501 C 30.400 308.348,31.434 309.855,31.907 309.698 C 32.180 309.607,32.400 309.866,32.400 310.278 C 32.400 310.688,32.760 311.283,33.200 311.600 C 33.640 311.917,34.000 312.587,34.000 313.088 C 34.000 313.590,34.193 314.000,34.429 314.000 C 34.982 314.000,36.000 315.018,36.000 315.571 C 36.000 315.807,36.180 316.000,36.400 316.000 C 36.620 316.000,36.800 316.360,36.800 316.800 C 36.800 317.240,36.980 317.600,37.200 317.600 C 37.420 317.600,37.614 318.005,37.632 318.500 C 37.649 318.995,37.754 319.175,37.865 318.900 C 38.199 318.072,38.800 318.337,38.800 319.312 C 38.800 319.813,39.160 320.483,39.600 320.800 C 40.040 321.117,40.400 321.607,40.400 321.888 C 40.400 322.170,40.691 322.400,41.047 322.400 C 41.496 322.400,41.630 322.644,41.484 323.200 C 41.369 323.640,41.451 324.000,41.666 324.000 C 42.103 324.000,43.200 325.001,43.200 325.400 C 43.200 325.734,44.266 326.800,44.600 326.800 C 45.099 326.800,46.000 327.951,46.000 328.590 C 46.000 329.205,47.689 331.200,48.210 331.200 C 48.549 331.200,49.600 332.278,49.600 332.625 C 49.600 332.779,49.988 333.242,50.461 333.653 C 50.950 334.077,51.101 334.400,50.811 334.400 C 50.530 334.400,51.132 335.198,52.150 336.173 C 53.167 337.148,54.000 338.138,54.000 338.373 C 54.000 338.608,54.186 338.800,54.413 338.800 C 54.951 338.800,57.600 341.449,57.600 341.987 C 57.600 342.214,57.786 342.400,58.013 342.400 C 58.240 342.400,59.805 343.795,61.490 345.500 C 63.176 347.205,64.700 348.555,64.877 348.500 C 65.055 348.445,65.213 348.715,65.228 349.100 C 65.252 349.699,65.306 349.684,65.600 349.000 C 65.894 348.316,65.948 348.301,65.972 348.900 C 65.987 349.285,66.135 349.600,66.300 349.600 C 66.700 349.601,68.800 351.419,68.800 351.765 C 68.800 352.209,70.727 354.000,71.205 354.000 C 71.448 354.000,71.536 354.180,71.400 354.400 C 71.260 354.627,71.596 354.800,72.176 354.800 C 72.739 354.800,73.200 354.993,73.200 355.229 C 73.200 355.695,74.185 356.800,74.600 356.800 C 74.985 356.800,76.000 357.890,76.000 358.303 C 76.000 358.501,76.405 358.649,76.900 358.632 C 77.419 358.613,77.758 358.812,77.700 359.100 C 77.645 359.375,77.870 359.600,78.200 359.600 C 78.530 359.600,78.800 359.780,78.800 360.000 C 78.800 360.220,79.081 360.400,79.424 360.400 C 79.767 360.400,79.936 360.580,79.800 360.800 C 79.660 361.027,79.996 361.200,80.576 361.200 C 81.139 361.200,81.600 361.393,81.600 361.629 C 81.600 362.266,82.653 363.200,83.371 363.200 C 83.717 363.200,84.000 363.380,84.000 363.600 C 84.000 363.820,84.193 364.000,84.429 364.000 C 84.982 364.000,86.000 365.018,86.000 365.571 C 86.000 365.807,86.410 366.000,86.912 366.000 C 87.413 366.000,88.083 366.360,88.400 366.800 C 88.717 367.240,89.312 367.600,89.722 367.600 C 90.134 367.600,90.393 367.820,90.302 368.093 C 90.131 368.606,91.678 369.600,92.646 369.600 C 92.951 369.600,93.200 369.780,93.200 370.000 C 93.200 370.220,93.573 370.400,94.029 370.400 C 94.914 370.400,96.000 371.266,96.000 371.971 C 96.000 372.207,96.384 372.400,96.853 372.400 C 97.322 372.400,98.042 372.788,98.453 373.261 C 98.895 373.770,99.200 373.909,99.200 373.600 C 99.200 373.291,99.505 373.430,99.947 373.939 C 100.358 374.412,101.078 374.800,101.547 374.800 C 102.039 374.800,102.400 375.054,102.400 375.400 C 102.400 375.773,102.778 376.000,103.400 376.000 C 103.950 376.000,104.400 376.180,104.400 376.400 C 104.400 376.620,104.760 376.800,105.200 376.800 C 105.640 376.800,106.000 376.980,106.000 377.200 C 106.000 377.420,106.450 377.600,107.000 377.600 C 107.641 377.600,108.000 377.825,108.000 378.227 C 108.000 378.672,108.232 378.780,108.800 378.600 C 109.368 378.420,109.600 378.528,109.600 378.973 C 109.600 379.375,109.959 379.600,110.600 379.600 C 111.150 379.600,111.600 379.780,111.600 380.000 C 111.600 380.220,111.883 380.400,112.229 380.400 C 112.574 380.400,113.119 380.662,113.440 380.983 C 113.761 381.304,114.288 381.464,114.612 381.340 C 114.979 381.199,115.200 381.356,115.200 381.757 C 115.200 382.133,115.532 382.400,116.000 382.400 C 116.440 382.400,116.800 382.580,116.800 382.800 C 116.800 383.020,117.250 383.200,117.800 383.200 C 118.350 383.200,118.800 383.380,118.800 383.600 C 118.800 383.820,119.385 384.003,120.100 384.006 C 121.086 384.011,121.255 384.106,120.800 384.400 C 120.354 384.688,120.589 384.789,121.713 384.794 C 122.684 384.798,123.308 385.015,123.455 385.400 C 123.582 385.730,124.016 386.000,124.419 386.000 C 124.823 386.000,125.264 386.180,125.400 386.400 C 125.536 386.620,126.177 386.800,126.824 386.800 C 127.471 386.800,128.000 386.980,128.000 387.200 C 128.000 387.420,128.540 387.600,129.200 387.600 C 130.000 387.600,130.400 387.800,130.400 388.200 C 130.400 388.600,130.800 388.800,131.600 388.800 C 132.260 388.800,132.800 388.980,132.800 389.200 C 132.800 389.420,133.430 389.600,134.200 389.600 C 134.970 389.600,135.600 389.780,135.600 390.000 C 135.600 390.220,136.230 390.400,137.000 390.400 C 137.770 390.400,138.400 390.580,138.400 390.800 C 138.400 391.020,139.030 391.200,139.800 391.200 C 140.570 391.200,141.200 391.391,141.200 391.624 C 141.200 391.857,140.992 391.919,140.738 391.762 C 140.452 391.585,140.385 391.652,140.562 391.938 C 140.719 392.192,141.647 392.400,142.624 392.400 C 143.601 392.400,144.400 392.580,144.400 392.800 C 144.400 393.020,145.131 393.200,146.024 393.200 C 147.004 393.200,147.549 393.358,147.400 393.600 C 147.247 393.847,147.937 394.000,149.200 394.000 C 150.463 394.000,151.153 394.153,151.000 394.400 C 150.847 394.648,151.585 394.800,152.945 394.800 L 155.136 394.800 155.391 392.300 C 155.531 390.925,155.591 386.857,155.523 383.259 L 155.400 376.718 153.800 376.217 C 152.920 375.942,151.390 375.488,150.400 375.209 C 147.404 374.366,142.251 372.763,141.400 372.410 C 140.960 372.228,137.720 370.962,134.200 369.598 C 128.119 367.241,117.323 362.183,113.000 359.666 C 111.900 359.025,109.916 357.881,108.591 357.124 C 103.223 354.054,92.351 346.766,90.800 345.198 C 90.690 345.086,89.880 344.466,89.000 343.819 C 88.120 343.172,87.310 342.537,87.200 342.408 C 87.090 342.278,86.103 341.459,85.006 340.586 C 81.055 337.442,71.616 328.839,70.000 326.910 C 69.450 326.253,67.438 324.025,65.529 321.958 C 52.880 308.264,39.173 286.855,32.646 270.600 C 32.028 269.060,31.373 267.440,31.190 267.000 C 28.694 260.986,25.143 249.855,23.598 243.200 C 23.419 242.430,22.979 240.540,22.621 239.000 C 22.262 237.460,21.805 235.210,21.604 234.000 C 21.404 232.790,21.048 230.720,20.814 229.400 C 18.666 217.287,17.928 202.146,18.805 188.200 C 19.334 179.796,19.654 177.278,21.596 166.200 C 22.277 162.316,23.428 157.457,25.384 150.200 C 28.802 137.524,37.485 117.362,43.865 107.292 C 44.599 106.133,45.200 105.104,45.200 105.005 C 45.200 104.906,46.047 103.514,47.082 101.912 C 61.685 79.312,79.429 61.253,101.000 47.035 C 106.145 43.644,107.559 42.768,112.200 40.100 C 114.540 38.755,125.041 33.541,127.600 32.454 C 128.810 31.940,130.358 31.272,131.039 30.970 C 159.666 18.270,198.824 14.019,231.800 20.031 C 250.727 23.482,272.148 31.048,287.000 39.528 C 288.320 40.282,290.210 41.351,291.200 41.904 C 306.787 50.612,329.290 70.060,340.600 84.598 C 342.800 87.426,345.050 90.260,345.601 90.895 L 346.602 92.051 357.100 92.014 C 369.496 91.969,370.832 91.638,367.800 89.361 C 367.250 88.948,366.800 88.280,366.800 87.876 C 366.800 87.071,365.903 86.000,365.229 86.000 C 364.993 86.000,364.800 85.622,364.800 85.160 C 364.800 84.699,364.260 83.817,363.600 83.200 C 362.940 82.583,362.400 81.701,362.400 81.240 C 362.400 80.778,362.212 80.400,361.982 80.400 C 361.327 80.400,359.600 78.508,359.600 77.790 C 359.600 77.151,358.699 76.000,358.200 76.000 C 357.697 76.000,356.800 74.847,356.800 74.200 C 356.800 73.458,355.876 72.400,355.229 72.400 C 354.993 72.400,354.800 72.202,354.800 71.960 C 354.800 71.719,354.260 71.017,353.600 70.400 C 352.940 69.783,352.400 69.101,352.400 68.884 C 352.400 68.667,350.960 67.020,349.200 65.224 C 347.440 63.429,346.000 61.788,346.000 61.580 C 346.000 61.371,345.814 61.200,345.587 61.200 C 345.049 61.200,342.400 58.551,342.400 58.013 C 342.400 57.786,342.214 57.600,341.987 57.600 C 341.449 57.600,338.800 54.951,338.800 54.413 C 338.800 54.186,338.629 54.000,338.420 54.000 C 338.212 54.000,336.571 52.560,334.776 50.800 C 332.980 49.040,331.333 47.600,331.116 47.600 C 330.899 47.600,330.217 47.060,329.600 46.400 C 328.983 45.740,328.281 45.200,328.040 45.200 C 327.798 45.200,327.600 45.007,327.600 44.771 C 327.600 44.124,326.542 43.200,325.800 43.200 C 325.153 43.200,324.000 42.303,324.000 41.800 C 324.000 41.301,322.849 40.400,322.210 40.400 C 321.492 40.400,319.600 38.673,319.600 38.018 C 319.600 37.788,319.222 37.600,318.760 37.600 C 318.299 37.600,317.417 37.060,316.800 36.400 C 316.183 35.740,315.301 35.200,314.840 35.200 C 314.378 35.200,314.000 35.007,314.000 34.771 C 314.000 34.097,312.929 33.200,312.124 33.200 C 311.720 33.200,311.052 32.750,310.639 32.200 C 310.226 31.650,309.643 31.200,309.344 31.200 C 309.045 31.200,308.800 31.020,308.800 30.800 C 308.800 30.580,308.530 30.400,308.200 30.400 C 307.870 30.400,307.600 30.220,307.600 30.000 C 307.600 29.780,307.240 29.600,306.800 29.600 C 306.360 29.600,306.000 29.420,306.000 29.200 C 306.000 28.980,305.550 28.800,305.000 28.800 C 304.450 28.800,304.000 28.607,304.000 28.371 C 304.000 27.666,302.914 26.800,302.029 26.800 C 301.573 26.800,301.200 26.620,301.200 26.400 C 301.200 26.180,300.840 26.000,300.400 26.000 C 299.960 26.000,299.600 25.820,299.600 25.600 C 299.600 25.380,299.330 25.200,299.000 25.200 C 298.670 25.200,298.399 25.065,298.397 24.900 C 298.394 24.498,296.081 23.200,295.368 23.200 C 295.055 23.200,294.800 23.020,294.800 22.800 C 294.800 22.580,294.459 22.400,294.043 22.400 C 293.626 22.400,293.178 22.119,293.046 21.775 C 292.914 21.431,292.639 21.252,292.435 21.378 C 292.231 21.504,291.793 21.336,291.461 21.004 C 291.129 20.672,290.574 20.400,290.229 20.400 C 289.883 20.400,289.600 20.220,289.600 20.000 C 289.600 19.780,289.150 19.600,288.600 19.600 C 288.050 19.600,287.600 19.420,287.600 19.200 C 287.600 18.980,287.259 18.800,286.843 18.800 C 286.426 18.800,285.982 18.530,285.855 18.200 C 285.729 17.870,285.259 17.600,284.813 17.600 C 284.366 17.600,284.000 17.420,284.000 17.200 C 284.000 16.980,283.550 16.800,283.000 16.800 C 282.450 16.800,282.000 16.620,282.000 16.400 C 282.000 16.180,281.460 16.000,280.800 16.000 C 280.140 16.000,279.600 15.820,279.600 15.600 C 279.600 15.380,279.150 15.200,278.600 15.200 C 277.978 15.200,277.600 14.973,277.600 14.600 C 277.600 14.181,277.178 14.000,276.200 14.000 C 275.430 14.000,274.800 13.820,274.800 13.600 C 274.800 13.380,274.440 13.200,274.000 13.200 C 273.560 13.200,273.200 13.020,273.200 12.800 C 273.200 12.580,272.570 12.400,271.800 12.400 C 270.822 12.400,270.400 12.219,270.400 11.800 C 270.400 11.427,270.022 11.200,269.400 11.200 C 268.850 11.200,268.400 11.020,268.400 10.800 C 268.400 10.580,267.860 10.400,267.200 10.400 C 266.540 10.400,266.000 10.220,266.000 10.000 C 266.000 9.780,265.370 9.600,264.600 9.600 C 263.830 9.600,263.200 9.420,263.200 9.200 C 263.200 8.980,262.589 8.800,261.843 8.800 C 261.005 8.800,260.397 8.570,260.255 8.200 C 260.103 7.804,259.477 7.600,258.413 7.600 C 257.526 7.600,256.800 7.420,256.800 7.200 C 256.800 6.980,256.170 6.800,255.400 6.800 C 254.630 6.800,254.000 6.620,254.000 6.400 C 254.000 6.180,253.190 6.000,252.200 6.000 C 251.210 6.000,250.400 5.820,250.400 5.600 C 250.400 5.380,249.590 5.200,248.600 5.200 C 247.322 5.200,246.800 5.037,246.800 4.639 C 246.800 4.086,246.441 4.011,240.700 3.363 C 239.545 3.233,238.429 2.963,238.220 2.763 C 238.011 2.563,236.815 2.400,235.563 2.400 C 233.908 2.400,233.223 2.236,233.055 1.800 C 232.884 1.354,232.175 1.200,230.293 1.200 C 228.831 1.200,227.553 0.993,227.271 0.711 C 226.789 0.229,186.386 -0.120,176.804 0.276 M252.596 123.700 C 251.441 124.855,244.534 131.631,237.248 138.758 L 224.000 151.716 224.000 164.658 C 224.000 174.735,224.111 177.604,224.500 177.618 C 229.468 177.798,237.871 177.473,238.341 177.083 C 238.829 176.678,238.883 175.165,238.683 167.489 L 238.445 158.377 239.722 156.897 C 241.051 155.358,244.013 152.385,254.461 142.100 L 260.658 136.000 314.896 136.000 C 344.727 136.000,369.410 136.106,369.746 136.235 C 370.083 136.364,370.740 137.669,371.208 139.135 C 371.675 140.601,372.216 142.160,372.410 142.600 C 374.204 146.675,378.045 162.455,379.565 172.000 C 382.893 192.891,382.531 212.856,378.428 234.800 C 377.792 238.200,376.947 241.734,374.985 249.200 C 371.245 263.423,362.421 283.118,353.478 297.200 C 351.641 300.093,345.596 308.888,345.230 309.200 C 345.101 309.310,344.466 310.120,343.819 311.000 C 343.172 311.880,342.537 312.690,342.408 312.800 C 342.278 312.910,341.466 313.900,340.601 315.000 C 336.062 320.778,326.549 330.667,320.000 336.415 C 318.130 338.057,316.510 339.494,316.400 339.609 C 314.238 341.866,296.192 354.800,295.204 354.800 C 294.982 354.800,294.800 354.980,294.800 355.200 C 294.800 355.420,294.603 355.600,294.362 355.600 C 294.121 355.600,293.446 355.934,292.862 356.343 C 292.278 356.751,290.990 357.536,290.000 358.086 C 289.010 358.637,287.480 359.496,286.600 359.995 C 282.549 362.295,271.677 367.494,268.200 368.794 C 267.760 368.958,266.950 369.297,266.400 369.546 C 264.768 370.284,258.876 372.376,254.800 373.664 C 252.710 374.324,250.010 375.196,248.800 375.602 C 246.639 376.325,240.131 377.878,235.400 378.799 C 234.080 379.056,232.248 379.430,231.330 379.631 C 227.981 380.364,217.286 381.669,212.887 381.883 C 207.302 382.154,207.722 381.366,207.624 391.742 L 207.545 400.084 215.673 399.781 C 220.143 399.615,224.008 399.476,224.262 399.473 C 224.516 399.469,224.635 399.234,224.526 398.950 C 224.369 398.542,225.048 398.485,227.774 398.677 C 230.871 398.896,231.195 398.853,230.968 398.260 C 230.746 397.682,231.094 397.600,233.757 397.600 C 235.519 397.600,236.800 397.432,236.800 397.200 C 236.800 396.980,237.790 396.800,239.000 396.800 C 240.298 396.800,241.200 396.624,241.200 396.371 C 241.200 396.136,241.605 395.976,242.100 396.016 C 244.636 396.221,245.973 395.995,245.745 395.400 C 245.561 394.920,245.884 394.800,247.357 394.800 C 248.371 394.800,249.200 394.620,249.200 394.400 C 249.200 394.180,250.010 394.000,251.000 394.000 C 251.990 394.000,252.800 393.820,252.800 393.600 C 252.800 393.380,253.419 393.200,254.176 393.200 C 254.933 393.200,255.641 393.058,255.748 392.884 C 255.856 392.710,256.616 392.522,257.438 392.467 C 259.160 392.351,259.708 392.099,259.383 391.572 C 259.256 391.368,259.793 391.200,260.576 391.200 C 261.359 391.200,262.000 391.020,262.000 390.800 C 262.000 390.580,262.529 390.400,263.176 390.400 C 263.823 390.400,264.464 390.220,264.600 390.000 C 264.736 389.780,265.567 389.600,266.447 389.600 C 267.412 389.600,267.949 389.441,267.800 389.200 C 267.653 388.962,268.125 388.800,268.964 388.800 C 270.054 388.800,270.322 388.663,270.145 388.200 C 269.976 387.761,270.195 387.600,270.957 387.600 C 271.531 387.600,272.000 387.420,272.000 387.200 C 272.000 386.980,272.630 386.800,273.400 386.800 C 274.170 386.800,274.800 386.620,274.800 386.400 C 274.800 386.180,275.166 386.000,275.613 386.000 C 276.059 386.000,276.529 385.730,276.655 385.400 C 276.798 385.027,277.408 384.800,278.266 384.800 C 279.085 384.800,279.547 384.637,279.400 384.400 C 279.260 384.173,279.596 384.000,280.176 384.000 C 280.739 384.000,281.200 383.820,281.200 383.600 C 281.200 383.380,281.650 383.200,282.200 383.200 C 282.750 383.200,283.200 383.020,283.200 382.800 C 283.200 382.580,283.560 382.400,284.000 382.400 C 284.468 382.400,284.800 382.133,284.800 381.757 C 284.800 381.356,285.021 381.199,285.388 381.340 C 285.712 381.464,286.239 381.304,286.560 380.983 C 286.881 380.662,287.426 380.400,287.771 380.400 C 288.117 380.400,288.400 380.220,288.400 380.000 C 288.400 379.780,288.835 379.600,289.367 379.600 C 289.898 379.600,290.393 379.431,290.467 379.225 C 290.540 379.018,291.087 378.785,291.682 378.707 C 292.277 378.628,293.108 378.167,293.529 377.682 C 293.950 377.197,294.678 376.800,295.147 376.800 C 295.616 376.800,296.000 376.620,296.000 376.400 C 296.000 376.180,296.360 376.000,296.800 376.000 C 297.244 376.000,297.600 375.733,297.600 375.400 C 297.600 375.027,297.978 374.800,298.600 374.800 C 299.150 374.800,299.600 374.620,299.600 374.400 C 299.600 374.180,299.960 374.000,300.400 374.000 C 300.840 374.000,301.200 373.820,301.200 373.600 C 301.200 373.380,301.470 373.200,301.800 373.200 C 302.130 373.200,302.400 373.020,302.400 372.800 C 302.400 372.580,302.760 372.400,303.200 372.400 C 303.644 372.400,304.000 372.133,304.000 371.800 C 304.000 371.270,304.753 370.993,305.730 371.163 C 305.911 371.194,305.945 371.035,305.806 370.810 C 305.667 370.584,305.833 370.400,306.176 370.400 C 306.519 370.400,306.800 370.220,306.800 370.000 C 306.800 369.780,307.049 369.600,307.354 369.600 C 308.322 369.600,309.869 368.606,309.698 368.093 C 309.607 367.820,309.866 367.600,310.278 367.600 C 310.688 367.600,311.283 367.240,311.600 366.800 C 311.917 366.360,312.587 366.000,313.088 366.000 C 313.590 366.000,314.000 365.807,314.000 365.571 C 314.000 364.894,315.072 364.000,315.883 364.000 C 316.290 364.000,316.883 363.640,317.200 363.200 C 317.517 362.760,318.142 362.386,318.588 362.368 C 319.035 362.351,319.174 362.246,318.898 362.134 C 318.222 361.862,318.675 361.200,319.535 361.200 C 319.914 361.200,320.483 360.840,320.800 360.400 C 321.117 359.960,321.607 359.600,321.888 359.600 C 322.170 359.600,322.400 359.309,322.400 358.953 C 322.400 358.504,322.644 358.370,323.200 358.516 C 323.640 358.631,324.000 358.549,324.000 358.334 C 324.000 357.897,325.001 356.800,325.400 356.800 C 325.815 356.800,326.800 355.695,326.800 355.229 C 326.800 354.993,327.261 354.800,327.824 354.800 C 328.404 354.800,328.740 354.627,328.600 354.400 C 328.464 354.180,328.552 354.000,328.795 354.000 C 329.355 354.000,331.200 352.174,331.200 351.618 C 331.200 351.388,331.470 351.200,331.800 351.200 C 332.130 351.200,332.400 351.020,332.400 350.800 C 332.400 350.580,332.760 350.400,333.200 350.400 C 333.680 350.400,334.000 350.133,334.000 349.733 C 334.000 349.367,334.116 349.182,334.257 349.324 C 334.399 349.465,335.286 348.775,336.230 347.790 C 337.173 346.806,338.138 346.000,338.373 346.000 C 338.608 346.000,338.800 345.814,338.800 345.587 C 338.800 345.049,341.449 342.400,341.987 342.400 C 342.214 342.400,342.400 342.214,342.400 341.987 C 342.400 341.449,345.049 338.800,345.587 338.800 C 345.814 338.800,346.000 338.612,346.000 338.383 C 346.000 338.153,346.990 336.999,348.200 335.817 C 349.410 334.636,350.400 333.384,350.400 333.035 C 350.400 332.686,350.580 332.400,350.800 332.400 C 351.020 332.400,351.200 332.130,351.200 331.800 C 351.200 331.470,351.386 331.200,351.613 331.200 C 352.270 331.200,354.800 328.492,354.800 327.790 C 354.800 327.439,354.992 327.271,355.227 327.416 C 355.696 327.707,356.767 326.509,356.787 325.671 C 356.803 325.019,357.783 324.000,358.395 324.000 C 358.644 324.000,358.745 323.835,358.620 323.632 C 358.495 323.430,358.664 322.993,358.996 322.661 C 359.328 322.329,359.600 321.904,359.600 321.717 C 359.600 321.530,359.960 321.117,360.400 320.800 C 360.840 320.483,361.200 320.004,361.200 319.735 C 361.200 319.467,361.408 319.119,361.662 318.962 C 361.967 318.773,362.014 318.854,361.800 319.200 C 361.586 319.546,361.633 319.627,361.938 319.438 C 362.192 319.281,362.400 318.876,362.400 318.537 C 362.400 318.198,362.940 317.417,363.600 316.800 C 364.753 315.723,365.231 314.886,364.400 315.400 C 364.180 315.536,364.000 315.534,364.000 315.395 C 364.000 315.051,365.075 314.000,365.427 314.000 C 365.872 314.000,366.773 312.667,366.787 311.988 C 366.794 311.652,367.169 311.112,367.619 310.788 C 368.502 310.155,369.600 308.229,369.600 307.315 C 369.600 307.006,369.780 306.864,370.000 307.000 C 370.220 307.136,370.400 306.967,370.400 306.624 C 370.400 306.281,370.580 306.000,370.800 306.000 C 371.020 306.000,371.200 305.550,371.200 305.000 C 371.200 304.450,371.393 304.000,371.629 304.000 C 372.334 304.000,373.200 302.914,373.200 302.029 C 373.200 301.573,373.380 301.200,373.600 301.200 C 373.820 301.200,374.000 300.840,374.000 300.400 C 374.000 299.960,374.180 299.600,374.400 299.600 C 374.620 299.600,374.800 299.330,374.800 299.000 C 374.800 298.670,375.010 298.400,375.267 298.400 C 375.523 298.400,375.624 298.291,375.491 298.157 C 375.357 298.024,375.597 297.540,376.024 297.082 C 376.451 296.624,376.800 295.923,376.800 295.525 C 376.800 295.126,376.980 294.800,377.200 294.800 C 377.420 294.800,377.600 294.459,377.600 294.043 C 377.600 293.626,377.881 293.178,378.225 293.046 C 378.569 292.914,378.748 292.639,378.622 292.435 C 378.496 292.231,378.664 291.793,378.996 291.461 C 379.328 291.129,379.600 290.585,379.600 290.252 C 379.600 289.919,379.780 289.536,380.000 289.400 C 380.220 289.264,380.400 288.803,380.400 288.376 C 380.400 287.949,380.580 287.600,380.800 287.600 C 381.020 287.600,381.200 287.259,381.200 286.843 C 381.200 286.426,381.470 285.982,381.800 285.855 C 382.130 285.729,382.400 285.274,382.400 284.846 C 382.400 284.417,382.574 284.007,382.787 283.933 C 383.000 283.860,383.219 283.215,383.272 282.500 C 383.326 281.785,383.512 281.200,383.685 281.200 C 383.858 281.200,384.000 280.840,384.000 280.400 C 384.000 279.960,384.180 279.600,384.400 279.600 C 384.620 279.600,384.800 279.169,384.800 278.643 C 384.800 278.116,385.070 277.582,385.400 277.455 C 385.751 277.321,386.000 276.721,386.000 276.013 C 386.000 275.346,386.180 274.800,386.400 274.800 C 386.620 274.800,386.800 274.440,386.800 274.000 C 386.800 273.560,386.980 273.200,387.200 273.200 C 387.420 273.200,387.600 272.570,387.600 271.800 C 387.600 270.822,387.781 270.400,388.200 270.400 C 388.569 270.400,388.800 270.025,388.800 269.424 C 388.800 268.887,388.980 268.336,389.200 268.200 C 389.420 268.064,389.600 267.513,389.600 266.976 C 389.600 266.439,389.780 266.000,390.000 266.000 C 390.220 266.000,390.400 265.370,390.400 264.600 C 390.400 263.830,390.580 263.200,390.800 263.200 C 391.020 263.200,391.200 262.589,391.200 261.843 C 391.200 261.005,391.430 260.397,391.800 260.255 C 392.196 260.103,392.400 259.477,392.400 258.413 C 392.400 257.526,392.580 256.800,392.800 256.800 C 393.020 256.800,393.200 256.170,393.200 255.400 C 393.200 254.630,393.380 254.000,393.600 254.000 C 393.820 254.000,394.000 253.190,394.000 252.200 C 394.000 251.210,394.180 250.400,394.400 250.400 C 394.620 250.400,394.800 249.590,394.800 248.600 C 394.800 247.322,394.963 246.800,395.361 246.800 C 395.914 246.800,395.989 246.441,396.637 240.700 C 396.767 239.545,397.037 238.429,397.237 238.220 C 397.437 238.011,397.600 236.815,397.600 235.563 C 397.600 233.908,397.764 233.223,398.200 233.055 C 398.646 232.884,398.800 232.175,398.800 230.293 C 398.800 228.800,399.005 227.555,399.300 227.260 C 399.690 226.870,399.800 220.875,399.800 200.000 C 399.800 179.125,399.690 173.130,399.300 172.740 C 399.005 172.445,398.800 171.200,398.800 169.707 C 398.800 167.825,398.646 167.116,398.200 166.945 C 397.762 166.776,397.600 166.086,397.600 164.381 C 397.600 163.097,397.420 161.936,397.200 161.800 C 396.980 161.664,396.800 160.584,396.800 159.400 C 396.800 158.216,396.620 157.136,396.400 157.000 C 396.180 156.864,396.000 155.953,396.000 154.976 C 396.000 153.664,395.843 153.200,395.400 153.200 C 394.956 153.200,394.800 152.733,394.800 151.400 C 394.800 150.410,394.620 149.600,394.400 149.600 C 394.180 149.600,394.000 148.790,394.000 147.800 C 394.000 146.810,393.820 146.000,393.600 146.000 C 393.380 146.000,393.200 145.370,393.200 144.600 C 393.200 143.830,393.020 143.200,392.800 143.200 C 392.580 143.200,392.400 142.474,392.400 141.587 C 392.400 140.523,392.196 139.897,391.800 139.745 C 391.430 139.603,391.200 138.995,391.200 138.157 C 391.200 137.411,391.020 136.800,390.800 136.800 C 390.580 136.800,390.400 136.170,390.400 135.400 C 390.400 134.630,390.220 134.000,390.000 134.000 C 389.780 134.000,389.600 133.460,389.600 132.800 C 389.600 132.140,389.420 131.600,389.200 131.600 C 388.980 131.600,388.800 131.150,388.800 130.600 C 388.800 129.978,388.573 129.600,388.200 129.600 C 387.781 129.600,387.600 129.178,387.600 128.200 C 387.600 127.430,387.420 126.800,387.200 126.800 C 386.980 126.800,386.800 126.440,386.800 126.000 C 386.800 125.560,386.620 125.200,386.400 125.200 C 386.180 125.200,386.000 124.570,386.000 123.800 C 386.000 122.822,385.819 122.400,385.400 122.400 C 385.070 122.400,384.800 122.220,384.800 122.000 C 384.800 121.735,362.849 121.600,319.748 121.600 L 254.696 121.600 252.596 123.700 M224.499 308.291 L 224.600 361.000 226.000 360.912 C 227.495 360.818,229.647 360.390,235.400 359.043 L 239.000 358.200 239.000 307.000 L 239.000 255.800 231.699 255.691 L 224.397 255.582 224.499 308.291 " stroke="none" fill="#05dbf0" fill-rule="evenodd"></path><path id="path2" d="M190.000 18.031 C 186.150 18.201,181.650 18.537,180.000 18.777 C 178.350 19.017,175.560 19.415,173.800 19.662 C 168.425 20.414,158.621 22.462,152.400 24.133 C 139.419 27.619,122.922 34.354,112.867 40.273 C 111.254 41.223,109.856 42.000,109.761 42.000 C 109.307 42.000,94.980 51.459,92.400 53.463 C 89.960 55.358,84.963 59.368,84.800 59.562 C 84.690 59.693,83.250 60.948,81.600 62.352 C 68.677 73.343,51.218 94.489,44.034 107.849 C 43.576 108.702,42.569 110.480,41.797 111.800 C 39.960 114.941,33.600 127.989,33.600 128.617 C 33.600 128.705,33.177 129.727,32.661 130.888 C 31.784 132.860,31.172 134.430,29.224 139.700 C 27.321 144.848,24.231 156.035,22.458 164.200 C 8.981 226.248,33.687 297.653,82.600 338.026 C 84.580 339.660,86.290 341.104,86.400 341.235 C 86.958 341.899,97.444 349.602,100.400 351.519 C 104.122 353.934,110.810 358.000,111.059 358.000 C 111.145 358.000,111.893 358.428,112.721 358.950 C 119.476 363.214,135.977 370.283,147.800 373.978 C 149.190 374.412,158.588 377.002,159.856 377.301 C 160.326 377.411,160.888 377.389,161.104 377.251 C 161.534 376.977,162.058 248.306,161.635 247.100 C 161.329 246.227,141.610 226.400,141.049 226.400 C 140.818 226.400,134.022 233.060,125.947 241.200 L 111.263 256.000 96.312 256.000 C 78.902 256.000,80.400 255.545,80.400 260.837 C 80.400 264.004,80.284 264.759,79.767 264.957 C 78.481 265.451,50.988 265.228,50.480 264.720 C 49.923 264.163,49.783 236.161,50.333 235.295 C 50.584 234.900,53.874 234.813,65.427 234.895 L 80.200 235.000 80.300 238.600 C 80.355 240.580,80.493 242.605,80.608 243.100 L 80.815 244.000 93.493 244.000 L 106.172 244.000 119.086 231.108 C 126.189 224.018,132.000 217.940,132.000 217.602 C 132.000 217.264,129.768 214.761,127.039 212.039 L 122.079 207.090 96.139 207.128 C 81.873 207.148,69.981 207.173,69.714 207.182 C 69.370 207.195,69.194 208.465,69.114 211.500 L 69.000 215.800 53.942 215.905 L 38.885 216.010 38.593 209.792 C 38.229 202.027,38.533 186.507,39.059 185.981 C 39.303 185.737,44.987 185.629,54.225 185.695 L 69.000 185.800 69.113 190.300 L 69.226 194.800 83.146 194.800 C 90.803 194.800,97.183 194.683,97.326 194.541 C 97.695 194.172,96.118 192.478,82.952 179.100 L 71.240 167.200 60.869 167.200 C 52.584 167.200,50.407 167.090,50.044 166.653 C 49.719 166.262,49.620 161.961,49.695 151.553 L 49.800 137.000 64.800 137.000 L 79.800 137.000 80.000 148.455 L 80.200 159.910 97.508 177.368 L 114.817 194.826 119.308 194.713 L 123.800 194.600 123.906 182.703 L 124.012 170.806 120.856 167.303 C 115.528 161.389,117.413 162.030,104.981 161.907 L 94.200 161.800 94.124 147.271 C 94.082 139.280,94.146 132.485,94.267 132.171 C 94.451 131.691,96.850 131.600,109.381 131.600 L 124.277 131.600 124.539 136.463 C 124.682 139.137,124.800 144.347,124.800 148.039 C 124.800 151.774,124.966 154.855,125.174 154.984 C 125.380 155.111,127.900 157.723,130.774 160.787 L 136.000 166.360 136.001 182.880 L 136.003 199.400 148.685 212.200 L 161.367 225.000 161.626 221.000 C 161.769 218.800,161.915 203.163,161.951 186.252 L 162.016 155.504 158.108 151.459 C 155.958 149.234,152.490 145.619,150.400 143.426 C 145.300 138.074,136.057 128.513,127.956 120.210 C 124.301 116.464,120.444 112.455,119.385 111.300 L 117.458 109.200 106.753 109.200 C 100.555 109.200,95.950 109.043,95.816 108.827 C 95.484 108.289,95.055 80.631,95.360 79.416 L 95.615 78.400 110.384 78.400 C 121.767 78.400,125.224 78.515,125.463 78.900 C 125.634 79.175,125.786 84.306,125.802 90.302 L 125.831 101.205 133.699 109.102 C 138.026 113.446,142.588 118.035,143.835 119.300 C 147.411 122.925,147.164 124.342,147.077 100.700 L 147.000 79.800 142.738 79.687 C 139.957 79.613,138.359 79.405,138.138 79.087 C 137.952 78.819,137.849 71.985,137.910 63.900 L 138.019 49.200 153.000 49.200 L 167.981 49.200 168.090 64.034 C 168.217 81.144,168.723 79.533,163.177 79.685 L 159.000 79.800 158.890 106.600 C 158.829 121.340,158.870 133.776,158.981 134.236 C 159.234 135.284,164.942 141.324,165.321 140.945 C 165.475 140.792,165.601 135.522,165.601 129.233 C 165.603 114.950,163.333 118.923,182.765 99.200 L 193.997 87.800 193.999 77.500 L 194.000 67.200 189.880 67.200 C 187.209 67.200,185.591 67.031,185.280 66.720 C 184.592 66.032,184.592 37.968,185.280 37.280 C 185.986 36.574,214.624 36.592,215.061 37.299 C 215.584 38.145,215.204 66.547,214.665 66.904 C 214.409 67.074,212.580 67.198,210.600 67.181 C 208.620 67.163,206.775 67.160,206.500 67.174 C 206.111 67.194,206.000 70.048,206.000 80.037 L 206.000 92.873 191.602 107.464 L 177.203 122.056 177.102 260.728 C 177.046 336.998,177.042 399.472,177.093 399.559 C 177.144 399.647,180.698 399.807,184.992 399.915 L 192.798 400.111 192.899 312.355 L 193.000 224.600 231.797 224.498 L 270.593 224.396 285.229 209.598 L 299.864 194.800 315.332 194.800 L 330.800 194.800 330.805 191.100 C 330.808 189.065,330.919 186.995,331.052 186.500 L 331.293 185.600 346.033 185.600 C 360.195 185.600,360.788 185.630,361.186 186.374 C 361.632 187.206,361.791 214.236,361.357 215.367 C 360.988 216.330,331.412 216.330,331.043 215.367 C 330.909 215.019,330.800 213.039,330.800 210.967 C 330.800 208.228,330.664 207.196,330.300 207.186 C 330.025 207.178,324.137 207.172,317.216 207.173 L 304.631 207.175 294.316 217.484 C 288.642 223.155,284.000 227.977,284.000 228.201 C 284.000 228.425,287.470 232.074,291.711 236.311 L 299.422 244.014 309.411 243.907 L 319.400 243.800 319.600 239.400 L 319.800 235.000 334.573 234.895 C 346.126 234.813,349.416 234.900,349.667 235.295 C 350.208 236.147,350.078 264.304,349.532 264.642 C 348.525 265.264,320.619 265.346,320.107 264.728 C 319.829 264.395,319.583 262.494,319.515 260.178 L 319.400 256.200 306.742 256.000 L 294.085 255.800 286.028 247.698 L 277.971 239.596 243.085 239.698 L 208.200 239.800 208.099 310.700 L 207.998 381.600 210.570 381.600 C 211.985 381.600,214.550 381.422,216.271 381.204 C 217.992 380.987,221.020 380.609,223.000 380.365 C 226.959 379.877,232.509 378.979,235.000 378.422 C 235.880 378.226,237.680 377.845,239.000 377.575 C 263.988 372.477,292.799 358.331,314.600 340.456 C 322.000 334.389,334.538 321.917,339.387 315.800 C 340.259 314.700,341.070 313.710,341.189 313.600 C 341.307 313.490,341.934 312.680,342.581 311.800 C 343.228 310.920,343.862 310.110,343.989 310.000 C 347.620 306.860,361.544 283.289,365.963 272.800 C 366.473 271.590,367.217 269.872,367.617 268.983 C 373.201 256.567,378.236 236.756,380.473 218.400 C 381.161 212.760,381.151 187.197,380.460 182.000 C 378.696 168.740,378.631 168.370,376.181 157.600 C 375.114 152.912,372.268 143.331,370.655 139.000 L 369.761 136.600 315.362 136.499 L 260.963 136.397 250.088 147.045 L 239.214 157.694 239.107 167.747 L 239.000 177.800 232.600 178.101 C 229.080 178.267,225.615 178.303,224.900 178.183 L 223.600 177.964 223.600 164.649 L 223.600 151.335 232.100 143.107 C 236.775 138.582,243.750 131.807,247.600 128.053 L 254.600 121.227 318.667 121.213 C 353.904 121.206,383.019 121.091,383.367 120.957 C 384.070 120.688,384.281 118.000,383.600 118.000 C 383.380 118.000,383.200 117.550,383.200 117.000 C 383.200 116.450,383.020 116.000,382.800 116.000 C 382.580 116.000,382.400 115.634,382.400 115.187 C 382.400 114.741,382.130 114.271,381.800 114.145 C 381.470 114.018,381.200 113.574,381.200 113.157 C 381.200 112.741,381.020 112.400,380.800 112.400 C 380.580 112.400,380.400 111.950,380.400 111.400 C 380.400 110.850,380.220 110.400,380.000 110.400 C 379.780 110.400,379.600 110.040,379.600 109.600 C 379.600 109.160,379.433 108.800,379.228 108.800 C 379.023 108.800,378.798 108.436,378.728 107.990 C 378.596 107.154,244.851 106.673,243.398 107.503 C 242.803 107.844,240.522 110.016,221.697 128.167 L 207.994 141.379 208.097 167.389 L 208.200 193.400 229.456 193.503 L 250.712 193.607 270.448 173.808 L 290.185 154.010 304.992 153.905 L 319.800 153.800 320.000 149.400 L 320.200 145.000 335.200 145.000 L 350.200 145.000 350.312 159.200 C 350.373 167.010,350.324 173.807,350.203 174.305 L 349.982 175.210 335.091 175.105 L 320.200 175.000 320.000 170.600 L 319.800 166.200 308.200 166.088 C 301.820 166.026,296.234 166.065,295.787 166.174 C 295.135 166.332,279.711 181.562,261.529 200.000 C 260.118 201.430,257.507 203.996,255.726 205.703 L 252.487 208.805 222.743 208.703 L 193.000 208.600 192.898 170.946 L 192.796 133.292 200.498 125.746 C 210.286 116.156,224.074 102.732,238.911 88.346 L 241.235 86.093 241.118 82.946 L 241.000 79.800 237.022 79.685 C 234.835 79.621,232.815 79.379,232.535 79.146 C 232.027 78.724,231.769 51.627,232.256 49.900 C 232.440 49.249,233.507 49.200,247.384 49.200 L 262.313 49.200 262.520 50.100 C 262.634 50.595,262.752 57.244,262.782 64.876 C 262.846 81.117,263.329 79.734,257.654 79.554 C 252.964 79.406,253.143 79.191,253.241 84.845 C 253.318 89.347,253.270 89.674,252.393 90.607 C 251.882 91.152,251.549 91.683,251.654 91.788 C 251.804 91.937,307.342 92.077,339.900 92.011 C 343.868 92.003,345.200 91.874,345.199 91.500 C 345.194 89.674,329.291 71.910,320.452 63.858 C 313.996 57.977,293.383 42.800,291.852 42.800 C 291.750 42.800,290.256 41.965,288.533 40.945 C 284.296 38.437,273.673 33.350,267.800 31.017 C 265.160 29.969,262.640 28.961,262.200 28.778 C 246.978 22.445,216.248 17.077,198.600 17.668 C 197.720 17.697,193.850 17.861,190.000 18.031 M194.267 46.267 C 193.933 46.600,193.912 56.505,194.243 57.367 C 194.581 58.250,205.241 58.314,205.968 57.439 C 206.439 56.871,206.275 47.168,205.780 46.368 C 205.523 45.951,194.678 45.856,194.267 46.267 M147.079 63.812 C 146.753 71.011,146.205 70.400,153.000 70.400 C 159.757 70.400,159.236 70.916,158.985 64.463 C 158.883 61.850,158.800 59.417,158.800 59.056 C 158.800 58.478,158.115 58.400,153.062 58.400 L 147.323 58.400 147.079 63.812 M241.479 63.812 C 241.154 70.998,240.636 70.400,247.194 70.400 C 253.885 70.400,253.531 70.724,253.533 64.600 C 253.536 57.778,254.148 58.400,247.435 58.400 L 241.723 58.400 241.479 63.812 M104.647 88.222 C 104.296 89.137,104.352 98.505,104.712 99.071 C 105.185 99.815,116.018 99.901,116.354 99.163 C 116.494 98.853,116.517 96.170,116.405 93.200 L 116.200 87.800 110.547 87.689 C 105.656 87.594,104.861 87.665,104.647 88.222 M103.689 146.689 L 103.800 152.600 109.600 152.600 L 115.400 152.600 115.400 146.800 L 115.400 141.000 109.489 140.889 L 103.578 140.778 103.689 146.689 M59.179 146.180 C 58.718 146.642,58.681 156.792,59.137 157.512 C 59.381 157.896,60.844 157.996,65.031 157.912 L 70.600 157.800 70.711 152.092 C 70.796 147.744,70.700 146.338,70.311 146.193 C 69.302 145.818,59.551 145.807,59.179 146.180 M329.289 159.900 L 329.400 165.800 334.969 165.912 C 341.640 166.046,341.186 166.467,341.194 160.133 C 341.202 153.446,341.767 154.000,334.947 154.000 L 329.179 154.000 329.289 159.900 M48.242 195.133 C 47.979 195.558,47.854 206.388,48.109 206.643 C 48.472 207.005,58.602 207.082,59.300 206.728 C 60.014 206.365,60.390 197.081,59.757 195.433 C 59.489 194.735,48.662 194.453,48.242 195.133 M340.267 195.067 C 339.562 195.771,339.985 206.364,340.734 206.765 C 341.713 207.289,351.700 206.828,352.100 206.240 C 352.427 205.762,352.129 195.733,351.772 195.154 C 351.520 194.747,340.669 194.664,340.267 195.067 M64.900 243.899 C 61.985 243.967,59.587 244.153,59.571 244.312 C 59.334 246.690,59.451 255.128,59.727 255.500 C 60.277 256.241,70.534 256.202,71.153 255.457 C 71.877 254.584,71.697 244.954,70.942 244.199 C 70.613 243.870,70.311 243.639,70.271 243.687 C 70.232 243.735,67.815 243.831,64.900 243.899 M328.982 244.274 C 328.439 244.818,328.388 254.671,328.924 255.500 C 329.156 255.859,330.752 256.000,334.575 256.000 C 338.351 256.000,340.021 255.854,340.312 255.500 C 340.788 254.920,340.954 245.228,340.499 244.534 C 340.063 243.867,329.623 243.632,328.982 244.274 M239.109 255.344 C 239.881 255.821,239.820 357.719,239.048 358.361 C 238.136 359.117,227.398 361.600,225.037 361.600 L 224.000 361.600 224.000 308.433 C 224.000 273.322,224.136 255.221,224.400 255.133 C 225.221 254.860,238.636 255.052,239.109 255.344 M166.800 397.976 C 166.800 398.647,167.509 398.813,167.746 398.198 C 167.885 397.835,167.744 397.600,167.387 397.600 C 167.064 397.600,166.800 397.769,166.800 397.976 " stroke="none" fill="#041c3e" fill-rule="evenodd"></path></g></svg>